<?xml version="1.0" encoding="utf-8"?>
<!-- Generator: Adobe Illustrator 26.1.0, SVG Export Plug-In . SVG Version: 6.00 Build 0)  -->
<svg version="1.1" id="Layer_1" xmlns="http://www.w3.org/2000/svg" xmlns:xlink="http://www.w3.org/1999/xlink" x="0px" y="0px"
	 viewBox="0 0 600 138" style="enable-background:new 0 0 600 138;" xml:space="preserve">
<style type="text/css">
	.st0{fill:#0061FE;}
</style>
<g>
	<path class="st0" d="M599,105.7c-2.6,9.2-6.1,16.6-11.2,21.6c-7.4,7.4-15.7,9.6-24.1,10.3c-7.1,0.5-14.3,0-21.2-3.2
		c-13.5-6.3-20.9-21.8-21.7-44.9c-0.3-8.5,0.3-16.8,2.2-24.7c2.5-10.7,6.8-18.9,12.6-24.9c8.8-9,18.4-11,28.4-10.4
		c5.9,0.4,11.6,1.9,17.1,5.8c11,7.8,17.7,21.2,18.8,41.5c0.3,4.9,0.1,9.9,0.1,15.2c-22,0-44.3,0-66.7,0c0.4,5.5,1.4,10,3.2,14.1
		c3.2,7.4,7.9,11,13,12.7c8.5,2.8,17,2.9,25.4-1.1c3.6-1.7,6.7-5,8.9-10.2c0.3-0.7,1-1.4,1.5-1.5C589.7,105.6,594.2,105.7,599,105.7
		z M587.1,75.4c-1-11.6-4.3-20.2-10.7-24.5c-9.5-6.4-19.2-6-28.9-1.2c-4.1,2.1-7.7,5.8-10.4,11.7c-1.9,4.1-3.2,8.6-3.7,14
		C551.4,75.4,569.1,75.4,587.1,75.4z"/>
	<path class="st0" d="M92.8,69c-4.6,0-9,0-13.6,0c0.6-8.7,2.2-16.5,5.6-23c3.7-7,8.4-11.1,13.7-13.2c12.7-5.3,25.6-5.7,38.3,0.2
		c9.7,4.5,14.7,15,15.1,31.9c0.2,9.6,0.1,19.1,0.1,28.7c0,13.5,0,27,0,40.7c-3.7,0-7.3,0-11,0c-0.4-8.7-0.8-17.4-1.3-26.9
		c-0.7,1.7-1.1,3-1.6,4.3c-4.3,10.8-10.3,17.8-17.6,21.7c-10.2,5.5-20.6,6.2-31,1.7c-7-3.1-11.2-11.1-11.8-21.6
		C77,100.2,80,90.7,86.6,84.7c5.6-5,11.7-7,17.9-8.1c7.5-1.3,15.1-2,22.6-3.3c2.7-0.4,5.5-1.2,8-2.5c3.7-1.9,4.9-7.2,3.2-13
		s-4.7-8.3-8.2-9.9c-6.1-2.9-12.2-2.5-18.4-1.8c-2,0.2-3.9,0.7-5.8,1.4C98.3,49.9,94.6,55.8,92.8,69z M139.4,81.5
		c-2.2,1.4-4.1,3.3-6.2,4.1c-3,1.2-6.1,1.8-9.2,2.3c-6,1-12.1,1.6-18.1,2.7c-3.7,0.7-7.3,2.2-10.4,5.8c-3.4,3.9-4.6,10.5-2.9,16.3
		c1.3,4.4,3.6,6.6,6.4,7.6c5.3,1.9,10.7,1.6,16.1,0c8-2.5,15.1-8,20.3-18.8C138.2,95.5,139.7,88.9,139.4,81.5z"/>
	<path class="st0" d="M448.5,134.3c-3.7,0-7.3,0-11,0c-0.4-8.8-0.8-17.6-1.3-26.7c-1.2,2.8-2.2,5.5-3.3,7.9
		c-5.2,10.8-12.2,16.8-20.1,19.9c-8,3.1-16.3,3.4-24.4,0.6c-5-1.7-9.4-5.1-12.1-12.7c-4.8-13.5-1.6-31.1,6.8-38.6
		c5.6-5,11.7-7,17.9-8.1c8.4-1.4,16.8-2.4,25.3-3.8c1.9-0.3,3.8-1,5.6-2c3.6-2,4.8-7.1,3.1-12.9c-1.6-5.8-4.7-8.3-8.2-10
		c-6.1-2.9-12.3-2.6-18.5-1.8c-2.7,0.4-5.5,1.2-8.1,2.4c-5.9,2.6-9.6,8.9-10.8,19.1c-0.1,0.5-0.1,1-0.2,1.6c-4.5,0-8.9,0-13.6,0
		c0.2-5.3,1.1-10.2,2.4-14.9c2.9-10.3,8.1-16.2,14.3-20c5-3.1,10.3-4.5,15.7-4.9c8.6-0.7,17.1-0.4,25.4,3.8
		c9.4,4.8,14.2,14.9,14.9,31.2c0.1,1.8,0.1,3.7,0.1,5.5c0,20.4,0,40.9,0,61.2C448.5,132,448.5,133,448.5,134.3z M435.9,81.5
		c-2.2,1.5-4.2,3.3-6.4,4.1c-3,1.2-6.1,1.7-9.2,2.3c-6,1-12,1.6-17.9,2.7c-3.7,0.7-7.4,2.2-10.5,5.9c-3.3,3.9-4.5,10.6-2.8,16.3
		c1.3,4.4,3.7,6.5,6.4,7.5c4.4,1.6,8.9,1.5,13.4,0.6c7.4-1.5,14.2-5.7,19.9-14.1C433.4,100,436.3,91.9,435.9,81.5z"/>
	<path class="st0" d="M13,86c0,16.4,0,32.2,0,48.1c-4.4,0-8.6,0-13,0c0-42,0-83.9,0-126c23,0,46,0,69,0c0,6.5,0,12.9,0,19.6
		c-18.7,0-37.3,0-55.9,0c0,13,0,25.6,0,38.6c17.9,0,35.6,0,53.5,0c0,6.7,0,13.1,0,19.8C48.7,86,31,86,13,86z"/>
	<path class="st0" d="M307.3,91.3c-1.5,16.8-6.3,29.4-15.1,37.4c-7,6.4-14.5,8.5-22.3,8.9c-6.5,0.3-13-0.3-19.3-2.8
		c-9.2-3.7-16.6-11.8-20.5-26.8c-3.7-14.4-4-29.5-0.6-44.2c3.3-14.2,9.8-23.5,18.2-28.8c12.4-7.7,24.9-7.8,37.5-1.7
		c7.3,3.6,13.3,10.4,17.5,21.2c2.3,5.8,4,13.5,4.4,20.5c-0.3,0.1-0.6,0.2-0.9,0.2c-4,0-8,0.1-12-0.1c-0.5,0-1.3-0.7-1.3-1.3
		c-2.3-15.5-8.7-23-17.6-25.6c-6.7-2-13.4-1.7-20,1.9c-9.8,5.3-14.7,17.2-14.5,34.5c0.1,8.3,1.1,16,4.5,22.4
		c2.5,4.8,5.7,7.7,9.3,9.4c8,3.8,16.1,4,24.1,0.6c7.4-3.1,12.1-11.1,14.2-23.5c0.1-0.9,0.7-2.1,1.1-2.1
		C298.4,91.2,302.7,91.3,307.3,91.3z"/>
	<path class="st0" d="M512.6,114.7c0,6.7,0,13,0,19.3c-0.2,0.1-0.4,0.3-0.5,0.3c-6.6-0.3-13.3-0.4-19.9-1.1c-4-0.5-7.8-2.6-11-6.9
		c-4-5.3-5.9-12.5-6.7-20.6c-0.6-6.7-0.9-13.5-1-20.2c-0.2-10.2-0.1-20.4-0.1-30.5c0-0.9,0-1.9,0-3.1c-5.5,0-10.9,0-16.3,0
		c0-6.1,0-12,0-18.3c2,0,4.1,0.1,6.1,0c2.2-0.2,4.3-0.5,6.5-1c2.3-0.5,3.8-2.8,4.1-6.5c0.5-6,0.8-12.1,1.3-18.1c0.1-1.1,0-2.2,0-3.4
		c3.8,0,7.3,0,11,0c0,9.3,0,18.5,0,28c8.9,0,17.6,0,26.5,0c0,6.5,0,12.7,0,19.2c-8.8,0-17.5,0-26.3,0c-0.1,0.7-0.2,1.2-0.2,1.7
		c0.1,12.7,0.1,25.4,0.2,38.1c0.1,5.3,0.5,10.6,2.3,15.2c2.1,5.2,5.3,6.8,8.8,7.2c4.4,0.5,8.8,0.5,13.2,0.7
		C511.2,114.7,511.8,114.7,512.6,114.7z"/>
	<path class="st0" d="M367.7,54c-3,0-5.8-0.3-8.6,0.1c-3.5,0.5-7,1.1-10.4,2.5c-7.3,3.1-11.8,11.3-13.2,23.4
		c-0.8,7.1-1.2,14.5-1.3,21.7c-0.2,9.8-0.1,19.7-0.1,29.5c0,0.9,0,1.9,0,3c-4.6,0-8.9,0-13.6,0c0-0.9,0-1.8,0-2.7
		c0-31.9,0-63.8,0-95.7c0-2.3,0.3-3.2,1.8-3.1c2.8,0.2,5.7,0.1,8.6,0c1.1,0,1.4,0.6,1.4,2.4c0.4,8.8,0.8,17.7,1.3,26.5
		c0,0.2,0.1,0.4,0.2,1c0.4-1.4,0.6-2.5,0.9-3.6c4-16,11.2-24.9,21.5-26.4c3.8-0.6,7.6-0.1,11.6-0.1C367.7,39.4,367.7,46.5,367.7,54z
		"/>
	<path class="st0" d="M169.3,0c4.3,0,8.6,0,13,0c0,44.7,0,89.4,0,134.2c-4.3,0-8.6,0-13,0C169.3,89.5,169.3,44.8,169.3,0z"/>
	<path class="st0" d="M200.6,0c4.4,0,8.6,0,13,0c0,44.8,0,89.4,0,134.2c-4.3,0-8.6,0-13,0C200.6,89.5,200.6,44.9,200.6,0z"/>
</g>
</svg>
