<?xml version="1.0" encoding="utf-8"?>
<!-- Generator: Adobe Illustrator 26.1.0, SVG Export Plug-In . SVG Version: 6.00 Build 0)  -->
<svg version="1.1" id="Layer_1" xmlns="http://www.w3.org/2000/svg" xmlns:xlink="http://www.w3.org/1999/xlink" x="0px" y="0px"
	 viewBox="0 0 800 138" style="enable-background:new 0 0 800 138;" xml:space="preserve">
<style type="text/css">
	.st0{fill:#0061FE;}
</style>
<g>
	<path class="st0" d="M798.6,105.7c-3.5,9.2-8.1,16.6-14.9,21.6c-9.9,7.4-20.9,9.6-32.1,10.3c-9.5,0.5-19.1,0-28.3-3.2
		c-18-6.3-27.9-21.8-28.9-44.9c-0.4-8.5,0.4-16.8,2.9-24.7c3.3-10.7,9.1-18.9,16.8-24.9c11.7-9,24.5-11,37.9-10.4
		c7.9,0.4,15.5,1.9,22.8,5.8c14.7,7.8,23.6,21.2,25.1,41.5c0.4,4.9,0.1,9.9,0.1,15.2c-29.3,0-59.1,0-88.9,0c0.5,5.5,1.9,10,4.3,14.1
		c4.3,7.4,10.5,11,17.3,12.7c11.3,2.8,22.7,2.9,33.9-1.1c4.8-1.7,8.9-5,11.9-10.2c0.4-0.7,1.3-1.4,2-1.5
		C786.2,105.6,792.2,105.7,798.6,105.7z M782.7,75.4c-1.3-11.6-5.7-20.2-14.3-24.5c-12.7-6.4-25.6-6-38.5-1.2
		c-5.5,2.1-10.3,5.8-13.9,11.7c-2.5,4.1-4.3,8.6-4.9,14C735.2,75.4,758.8,75.4,782.7,75.4z"/>
	<path class="st0" d="M123.8,69c-6.1,0-12,0-18.1,0c0.8-8.7,2.9-16.5,7.5-23c4.9-7,11.2-11.1,18.3-13.2c16.9-5.3,34.1-5.7,51.1,0.2
		c12.9,4.5,19.6,15,20.1,31.9c0.3,9.6,0.1,19.1,0.1,28.7c0,13.5,0,27,0,40.7c-4.9,0-9.7,0-14.7,0c-0.5-8.7-1.1-17.4-1.7-26.9
		c-0.9,1.7-1.5,3-2.1,4.3c-5.7,10.8-13.7,17.8-23.5,21.7c-13.6,5.5-27.5,6.2-41.3,1.7c-9.3-3.1-14.9-11.1-15.7-21.6
		c-0.9-13.3,3.1-22.8,11.9-28.8c7.5-5,15.6-7,23.9-8.1c10-1.3,20.1-2,30.1-3.3c3.6-0.4,7.3-1.2,10.7-2.5c4.9-1.9,6.5-7.2,4.3-13
		s-6.3-8.3-10.9-9.9c-8.1-2.9-16.3-2.5-24.5-1.8c-2.7,0.2-5.2,0.7-7.7,1.4C131.1,49.9,126.2,55.8,123.8,69z M185.9,81.5
		c-2.9,1.4-5.5,3.3-8.3,4.1c-4,1.2-8.1,1.8-12.3,2.3c-8,1-16.1,1.6-24.1,2.7c-4.9,0.7-9.7,2.2-13.9,5.8c-4.5,3.9-6.1,10.5-3.9,16.3
		c1.7,4.4,4.8,6.6,8.5,7.6c7.1,1.9,14.3,1.6,21.5,0c10.7-2.5,20.1-8,27.1-18.8C184.3,95.5,186.3,88.9,185.9,81.5z"/>
	<path class="st0" d="M598,134.3c-4.9,0-9.7,0-14.7,0c-0.5-8.8-1.1-17.6-1.7-26.7c-1.6,2.8-2.9,5.5-4.4,7.9
		c-6.9,10.8-16.3,16.8-26.8,19.9c-10.7,3.1-21.7,3.4-32.5,0.6c-6.7-1.7-12.5-5.1-16.1-12.7c-6.4-13.5-2.1-31.1,9.1-38.6
		c7.5-5,15.6-7,23.9-8.1c11.2-1.4,22.4-2.4,33.7-3.8c2.5-0.3,5.1-1,7.5-2c4.8-2,6.4-7.1,4.1-12.9c-2.1-5.8-6.3-8.3-10.9-10
		c-8.1-2.9-16.4-2.6-24.7-1.8c-3.6,0.4-7.3,1.2-10.8,2.4c-7.9,2.6-12.8,8.9-14.4,19.1c-0.1,0.5-0.1,1-0.3,1.6c-6,0-11.9,0-18.1,0
		c0.3-5.3,1.5-10.2,3.2-14.9c3.9-10.3,10.8-16.2,19.1-20c6.7-3.1,13.7-4.5,20.9-4.9c11.5-0.7,22.8-0.4,33.9,3.8
		c12.5,4.8,18.9,14.9,19.9,31.2c0.1,1.8,0.1,3.7,0.1,5.5c0,20.4,0,40.9,0,61.2C598,132,598,133,598,134.3z M581.2,81.5
		c-2.9,1.5-5.6,3.3-8.5,4.1c-4,1.2-8.1,1.7-12.3,2.3c-8,1-16,1.6-23.9,2.7c-4.9,0.7-9.9,2.2-14,5.9c-4.4,3.9-6,10.6-3.7,16.3
		c1.7,4.4,4.9,6.5,8.5,7.5c5.9,1.6,11.9,1.5,17.9,0.6c9.9-1.5,18.9-5.7,26.5-14.1C577.8,100,581.7,91.9,581.2,81.5z"/>
	<path class="st0" d="M17.4,86c0,16.4,0,32.2,0,48.1c-5.9,0-11.5,0-17.3,0c0-42,0-83.9,0-126c30.7,0,61.3,0,92,0
		c0,6.5,0,12.9,0,19.6c-24.9,0-49.7,0-74.5,0c0,13,0,25.6,0,38.6c23.9,0,47.5,0,71.3,0c0,6.7,0,13.1,0,19.8C65,86,41.4,86,17.4,86z"
		/>
	<path class="st0" d="M409.7,91.3c-2,16.8-8.4,29.4-20.1,37.4c-9.3,6.4-19.3,8.5-29.7,8.9c-8.7,0.3-17.3-0.3-25.7-2.8
		c-12.3-3.7-22.1-11.8-27.3-26.8c-4.9-14.4-5.3-29.5-0.8-44.2c4.4-14.2,13.1-23.5,24.3-28.8c16.5-7.7,33.2-7.8,50-1.7
		c9.7,3.6,17.7,10.4,23.3,21.2c3.1,5.8,5.3,13.5,5.9,20.5c-0.4,0.1-0.8,0.2-1.2,0.2c-5.3,0-10.7,0.1-16-0.1c-0.7,0-1.7-0.7-1.7-1.3
		c-3.1-15.5-11.6-23-23.5-25.6c-8.9-2-17.9-1.7-26.7,1.9c-13.1,5.3-19.6,17.2-19.3,34.5c0.1,8.3,1.5,16,6,22.4
		c3.3,4.8,7.6,7.7,12.4,9.4c10.7,3.8,21.5,4,32.1,0.6c9.9-3.1,16.1-11.1,18.9-23.5c0.1-0.9,0.9-2.1,1.5-2.1
		C397.9,91.2,403.6,91.3,409.7,91.3z"/>
	<path class="st0" d="M683.4,114.7c0,6.7,0,13,0,19.3c-0.3,0.1-0.5,0.3-0.7,0.3c-8.8-0.3-17.7-0.4-26.5-1.1
		c-5.3-0.5-10.4-2.6-14.7-6.9c-5.3-5.3-7.9-12.5-8.9-20.6c-0.8-6.7-1.2-13.5-1.3-20.2c-0.3-10.2-0.1-20.4-0.1-30.5
		c0-0.9,0-1.9,0-3.1c-7.3,0-14.5,0-21.7,0c0-6.1,0-12,0-18.3c2.7,0,5.5,0.1,8.1,0c2.9-0.2,5.7-0.5,8.7-1c3.1-0.5,5.1-2.8,5.5-6.5
		c0.7-6,1.1-12.1,1.7-18.1c0.1-1.1,0-2.2,0-3.4c5.1,0,9.7,0,14.7,0c0,9.3,0,18.5,0,28c11.9,0,23.5,0,35.3,0c0,6.5,0,12.7,0,19.2
		c-11.7,0-23.3,0-35.1,0c-0.1,0.7-0.3,1.2-0.3,1.7c0.1,12.7,0.1,25.4,0.3,38.1c0.1,5.3,0.7,10.6,3.1,15.2c2.8,5.2,7.1,6.8,11.7,7.2
		c5.9,0.5,11.7,0.5,17.6,0.7C681.6,114.7,682.4,114.7,683.4,114.7z"/>
	<path class="st0" d="M490.2,54c-4,0-7.7-0.3-11.5,0.1c-4.7,0.5-9.3,1.1-13.9,2.5c-9.7,3.1-15.7,11.3-17.6,23.4
		c-1.1,7.1-1.6,14.5-1.7,21.7c-0.3,9.8-0.1,19.7-0.1,29.5c0,0.9,0,1.9,0,3c-6.1,0-11.9,0-18.1,0c0-0.9,0-1.8,0-2.7
		c0-31.9,0-63.8,0-95.7c0-2.3,0.4-3.2,2.4-3.1c3.7,0.2,7.6,0.1,11.5,0c1.5,0,1.9,0.6,1.9,2.4c0.5,8.8,1.1,17.7,1.7,26.5
		c0,0.2,0.1,0.4,0.3,1c0.5-1.4,0.8-2.5,1.2-3.6c5.3-16,14.9-24.9,28.7-26.4c5.1-0.6,10.1-0.1,15.5-0.1
		C490.2,39.4,490.2,46.5,490.2,54z"/>
	<path class="st0" d="M225.7,0c5.7,0,11.5,0,17.3,0c0,44.7,0,89.4,0,134.2c-5.7,0-11.5,0-17.3,0C225.7,89.5,225.7,44.8,225.7,0z"/>
	<path class="st0" d="M267.5,0c5.9,0,11.5,0,17.3,0c0,44.8,0,89.4,0,134.2c-5.7,0-11.5,0-17.3,0C267.5,89.5,267.5,44.9,267.5,0z"/>
</g>
</svg>
